<?xml version="1.0" encoding="utf-8"?>
<!-- Generator: Adobe Illustrator 16.0.0, SVG Export Plug-In . SVG Version: 6.00 Build 0)  -->
<!DOCTYPE svg PUBLIC "-//W3C//DTD SVG 1.1//EN" "http://www.w3.org/Graphics/SVG/1.1/DTD/svg11.dtd">
<svg version="1.1" id="Layer_1" xmlns="http://www.w3.org/2000/svg" xmlns:xlink="http://www.w3.org/1999/xlink" x="0px" y="0px"
	 width="40px" height="40px" viewBox="0 0 40 40" enable-background="new 0 0 40 40" xml:space="preserve">
<g>
	<path fill="none" stroke="#000000" stroke-width="1.5" stroke-linecap="round" stroke-linejoin="round" stroke-miterlimit="10" d="
		M19.986,36.023h1.983l0.709-4.202c1.841-0.283,3.729-1.369,3.729-1.369l3.446,2.36l3.021-2.832l-2.832-3.4
		c0.896-0.851,1.746-3.776,1.746-3.776l4.155-0.756v-4.06l-4.296-0.803c0.1-0.976-1.465-3.588-1.465-3.588l2.598-3.399L29.76,7.27
		l-3.494,2.502c-0.593-0.74-3.636-1.794-3.636-1.794c0.142-0.378-0.661-4.061-0.661-4.061h-1.983h-1.983
		c0,0-0.803,3.683-0.661,4.061c0,0-3.043,1.055-3.636,1.794L10.212,7.27l-3.021,2.927l2.597,3.399c0,0-1.564,2.613-1.464,3.588
		l-4.296,0.803v4.06l4.155,0.756c0,0,0.85,2.926,1.747,3.776l-2.833,3.4l3.022,2.832l3.446-2.36c0,0,1.889,1.086,3.73,1.369
		l0.708,4.202H19.986z"/>
	<path fill="none" stroke="#010101" stroke-width="1.5" stroke-linecap="round" stroke-linejoin="round" stroke-miterlimit="10" d="
		M25.966,18.21c0.164,0.558,0.252,1.149,0.252,1.761c0,3.442-2.79,6.232-6.232,6.232s-6.232-2.79-6.232-6.232
		s2.79-6.232,6.232-6.232c0.995,0,1.936,0.233,2.77,0.647"/>
	<path fill="none" stroke="#010101" stroke-miterlimit="10" d="M25.966,18.21"/>
	<path fill="none" stroke="#010101" stroke-miterlimit="10" d="M22.756,14.387"/>
</g>
</svg>
