<?xml version="1.0" encoding="utf-8"?>
<!-- Generator: Adobe Illustrator 16.0.0, SVG Export Plug-In . SVG Version: 6.00 Build 0)  -->
<!DOCTYPE svg PUBLIC "-//W3C//DTD SVG 1.1//EN" "http://www.w3.org/Graphics/SVG/1.1/DTD/svg11.dtd">
<svg version="1.1" id="Layer_1" xmlns="http://www.w3.org/2000/svg" xmlns:xlink="http://www.w3.org/1999/xlink" x="0px" y="0px"
	 width="40px" height="40px" viewBox="0 0 40 40" enable-background="new 0 0 40 40" xml:space="preserve">
<g>
	<path d="M20.595,19.797c2.785-1.343,4.713-4.195,4.713-7.489C25.308,7.727,21.581,4,17,4s-8.308,3.727-8.308,8.308
		c0,3.294,1.928,6.146,4.713,7.489C6.309,21.433,1,27.799,1,35.385C1,35.725,1.275,36,1.615,36h30.77C32.725,36,33,35.725,33,35.385
		C33,27.799,27.691,21.433,20.595,19.797z M9.923,12.308c0-3.902,3.175-7.077,7.077-7.077s7.077,3.175,7.077,7.077
		S20.902,19.385,17,19.385S9.923,16.21,9.923,12.308z M2.243,34.77C2.567,26.91,9.063,20.615,17,20.615S31.433,26.91,31.757,34.77
		H2.243z"/>
	<path d="M38.556,11.357h-5.111V6.246c0-0.245-0.199-0.444-0.444-0.444s-0.444,0.199-0.444,0.444v5.111h-5.111
		c-0.245,0-0.444,0.199-0.444,0.444s0.199,0.444,0.444,0.444h5.111v5.111c0,0.245,0.199,0.444,0.444,0.444s0.444-0.199,0.444-0.444
		v-5.111h5.111c0.245,0,0.444-0.199,0.444-0.444S38.801,11.357,38.556,11.357z"/>
</g>
</svg>
