<?xml version="1.0" encoding="utf-8"?>
<!-- Generator: Adobe Illustrator 16.0.0, SVG Export Plug-In . SVG Version: 6.00 Build 0)  -->
<!DOCTYPE svg PUBLIC "-//W3C//DTD SVG 1.1//EN" "http://www.w3.org/Graphics/SVG/1.1/DTD/svg11.dtd">
<svg version="1.1" id="Layer_1" xmlns="http://www.w3.org/2000/svg" xmlns:xlink="http://www.w3.org/1999/xlink" x="0px" y="0px"
	 width="40px" height="40px" viewBox="0 0 40 40" enable-background="new 0 0 40 40" xml:space="preserve">
<g>
	<g>
		<g>
			<path fill="#010101" d="M458.229,291.463c-9.375,0-17-7.625-17-17c0-9.373,7.625-17,17-17c9.373,0,17,7.627,17,17
				C475.229,283.838,467.603,291.463,458.229,291.463z M458.229,259.082c-8.482,0-15.381,6.9-15.381,15.381
				c0,8.482,6.898,15.381,15.381,15.381c8.48,0,15.381-6.898,15.381-15.381C473.61,265.982,466.71,259.082,458.229,259.082z"/>
		</g>
		<path fill="#010101" d="M466.325,273.654h-7.287v-7.287c0-0.445-0.361-0.809-0.809-0.809s-0.811,0.363-0.811,0.809v7.287h-7.285
			c-0.447,0-0.809,0.361-0.809,0.809s0.361,0.811,0.809,0.811h7.285v7.285c0,0.447,0.363,0.809,0.811,0.809s0.809-0.361,0.809-0.809
			v-7.285h7.287c0.445,0,0.809-0.363,0.809-0.811S466.771,273.654,466.325,273.654z"/>
	</g>
</g>
<polygon fill="none" stroke="#020202" stroke-width="1.5" stroke-linecap="round" stroke-linejoin="round" stroke-miterlimit="10" points="
	20,3.647 24.051,16.119 37.166,16.119 26.555,23.826 30.607,36.295 20,28.588 9.391,36.295 13.442,23.826 2.833,16.119 
	15.947,16.119 "/>
</svg>
