<?xml version="1.0" encoding="utf-8"?>
<!-- Generator: Adobe Illustrator 16.0.0, SVG Export Plug-In . SVG Version: 6.00 Build 0)  -->
<!DOCTYPE svg PUBLIC "-//W3C//DTD SVG 1.1//EN" "http://www.w3.org/Graphics/SVG/1.1/DTD/svg11.dtd">
<svg version="1.1" id="Layer_1" xmlns="http://www.w3.org/2000/svg" xmlns:xlink="http://www.w3.org/1999/xlink" x="0px" y="0px"
	 width="40px" height="40px" viewBox="0 0 40 40" enable-background="new 0 0 40 40" xml:space="preserve">
<g>
	<g>
		<g>
			<path fill="#010101" d="M458.229,291.463c-9.375,0-17-7.625-17-17c0-9.373,7.625-17,17-17c9.373,0,17,7.627,17,17
				C475.229,283.838,467.603,291.463,458.229,291.463z M458.229,259.082c-8.482,0-15.381,6.9-15.381,15.381
				c0,8.482,6.898,15.381,15.381,15.381c8.48,0,15.381-6.898,15.381-15.381C473.61,265.982,466.71,259.082,458.229,259.082z"/>
		</g>
		<path fill="#010101" d="M466.325,273.654h-7.287v-7.287c0-0.445-0.361-0.809-0.809-0.809s-0.811,0.363-0.811,0.809v7.287h-7.285
			c-0.447,0-0.809,0.361-0.809,0.809s0.361,0.811,0.809,0.811h7.285v7.285c0,0.447,0.363,0.809,0.811,0.809s0.809-0.361,0.809-0.809
			v-7.285h7.287c0.445,0,0.809-0.363,0.809-0.811S466.771,273.654,466.325,273.654z"/>
	</g>
</g>
<g>
	<path fill="none" stroke="#020202" stroke-width="1.5" stroke-linecap="round" stroke-linejoin="round" stroke-miterlimit="10" d="
		M20.002,30.793H4.185l7.696-8.121c-0.094-4.958-0.559-9.613,1.699-12.701S20,6.761,20,6.761s4.164,0.123,6.422,3.21
		c2.257,3.087,1.793,7.743,1.699,12.701l7.695,8.121H20.002z"/>
	<path fill="#020202" d="M16.238,31.209c0.077,2.148,1.832,3.871,4,3.871c2.166,0,3.922-1.723,3.998-3.871H16.238z"/>
	<path fill="none" stroke="#020202" stroke-width="1.5" stroke-linecap="round" stroke-linejoin="round" stroke-miterlimit="10" d="
		M18.16,6.761c0-1.017,0.824-1.841,1.842-1.841c1.017,0,1.841,0.824,1.841,1.841"/>
</g>
</svg>
