<?xml version="1.0" encoding="utf-8"?>
<!-- Generator: Adobe Illustrator 16.0.0, SVG Export Plug-In . SVG Version: 6.00 Build 0)  -->
<!DOCTYPE svg PUBLIC "-//W3C//DTD SVG 1.1//EN" "http://www.w3.org/Graphics/SVG/1.1/DTD/svg11.dtd">
<svg version="1.1" id="Layer_1" xmlns="http://www.w3.org/2000/svg" xmlns:xlink="http://www.w3.org/1999/xlink" x="0px" y="0px"
	 width="150px" height="120px" viewBox="0 0 150 120" enable-background="new 0 0 150 120" xml:space="preserve">
<g>
	<path fill-rule="evenodd" clip-rule="evenodd" d="M146.295,32.142c-7.266-5.68-22.294-6.156-29.868-0.788
		c-4.809,3.406-9.634,6.856-13.887,10.71c-2.723,2.467-5.514,3.239-9.224,2.708c-3.043-0.436-5.979-0.349-8.446,1.576
		c-0.327,2.343-0.396,4.857-0.407,7.21c0.014,0,0.028-0.002,0.042-0.002c2.003,0.011,3.944,1.368,6.002,1.617
		c3.122,0.379,6.329,0.227,9.485,0.451c2.688,0.191,4.913-0.407,6.808-1.992c1.379-1.154,2.834-2.244,4.816-3.802
		c0,1.389,0,2.181,0,2.975c0.003,18.326,0.01,36.651,0.016,54.978c0,0.757-0.036,1.519,0.033,2.273
		c0.298,3.246,3.381,5.635,7.263,5.658c3.848,0.023,6.984-2.358,7.332-5.603c0.09-0.822,0.059-1.653,0.059-2.479
		c-0.004-13.159-0.027-26.319,0.028-39.48c0.003-0.653,0.692-1.305,1.063-1.957c0.356,0.612,1.024,1.225,1.025,1.841
		c0.019,5.303-0.121,10.604-0.144,15.907c-0.03,8.199-0.047,16.398,0.015,24.597c0.03,4.505,2.952,7.199,7.551,7.167
		c4.42-0.028,7.267-2.804,7.313-7.16c0.028-2.412,0.006-4.823,0.006-7.235c0.003-8.406-0.009-16.813,0.014-25.218
		c0.003-0.909-0.256-1.836,1.421-2.254c4.293-1.068,5.263-2.275,5.279-5.994c0.045-9.574,0.07-19.146,0.11-28.72
		C150.013,36.345,148.713,34.031,146.295,32.142z M146.659,67.92c0.003,1.604-0.465,3.002-2.782,3.008
		c-2.371,0.007-2.745-1.468-2.741-3.031c0.017-6.592,0.049-13.187,0.075-19.779c0.002-0.551,0.026-1.104-0.008-1.653
		c-0.077-1.141,0.208-2.666-1.831-2.637c-1.848,0.026-1.65,1.466-1.659,2.55c-0.027,3.375-0.019,6.75-0.014,10.124
		c0.006,3.852-0.008,7.704,0.052,11.557c0.016,0.879-0.028,1.954,0.531,2.597c1.671,1.917,1.393,4.032,1.395,6.142
		c0.01,10.401,0.004,20.8,0.001,31.2c0,0.619,0.036,1.244-0.05,1.856c-0.261,1.816-2.002,3.207-3.984,3.07
		c-2.18-0.152-3.482-1.202-3.816-3.003c-0.088-0.472-0.056-0.963-0.056-1.443c-0.013-14.187-0.035-28.371-0.01-42.557
		c0-1.516-0.607-2.37-2.557-2.378c-0.663-0.002-1.327-0.098-1.987-0.164c-3.099-0.314-4.136,0.428-4.138,3.002
		c-0.006,13.704-0.003,27.41-0.012,41.114c0,0.756,0.045,1.525-0.098,2.268c-0.375,1.965-2.183,3.289-4.198,3.169
		c-2.185-0.131-3.609-1.419-3.637-3.539c-0.067-4.682-0.031-9.366-0.034-14.049c-0.004-2.686-0.003-5.373-0.003-8.058
		c-0.018,0-0.036,0-0.056,0c0-8.46-0.001-16.922,0-25.383c0.003-4.732,0.067-9.465-0.036-14.195
		c-0.019-0.857-0.718-1.705-1.104-2.557c-0.984,0.38-2.129,0.608-2.926,1.171c-1.772,1.249-3.526,2.561-5.003,4.04
		c-2.005,2.013-4.398,2.704-7.476,2.405c-2.811-0.273-5.657-0.272-8.482-0.452c-1.9-0.122-3.265-0.965-3.183-2.595
		c0.076-1.531,1.427-2.29,3.265-2.25c2.582,0.055,5.168,0.128,7.739,0.315c1.811,0.131,3.081-0.339,4.406-1.413
		c5.474-4.43,11.148-8.689,16.646-13.099c6.169-4.95,21.315-2.829,25.225,1.181c1.271,1.302,2.385,3.144,2.424,4.758
		C146.764,48.778,146.651,58.35,146.659,67.92z"/>
	<path fill-rule="evenodd" clip-rule="evenodd" d="M140.969,16.701c-0.021,5.473-5.053,9.872-11.188,9.78
		c-5.985-0.09-10.994-4.595-10.941-9.836c0.06-5.44,5.078-9.773,11.259-9.719C136.191,6.979,140.991,11.294,140.969,16.701z
		 M129.855,23.375c4.299,0.04,7.657-2.8,7.774-6.576c0.114-3.715-3.498-6.971-7.711-6.952c-4.115,0.017-7.656,3.157-7.654,6.786
		C122.268,20.399,125.57,23.335,129.855,23.375z"/>
	<path fill-rule="evenodd" clip-rule="evenodd" fill="#FDCE9F" d="M83.53,37.178c0-0.958-0.158-1.946,0.064-2.861
		c0.122-0.5,0.824-1.084,1.396-1.229c0.33-0.084,1.304,0.609,1.33,0.987c0.14,2.125,0.147,4.264,0.024,6.39
		c-0.021,0.373-0.973,1.061-1.313,0.984c-0.574-0.13-1.317-0.704-1.424-1.189c-0.222-0.992-0.065-2.05-0.065-3.082
		C83.537,37.178,83.534,37.178,83.53,37.178z"/>
	<path fill-rule="evenodd" clip-rule="evenodd" fill="#FDCE9F" d="M92.638,38.505c-1.216,1.19-2.187,2.142-3.157,3.093
		c-0.487-0.467-1.492-1.172-1.382-1.361c0.701-1.181,1.65-2.247,2.516-3.352C91.152,37.315,91.687,37.745,92.638,38.505z"/>
	<path fill-rule="evenodd" clip-rule="evenodd" fill="#FDCE9F" d="M79.92,36.637c0.674,1.145,1.484,2.25,1.934,3.458
		c0.126,0.338-0.808,0.984-1.257,1.489c-0.857-1.037-1.849-2.015-2.498-3.146c-0.194-0.339,0.557-1.104,0.875-1.673
		C79.288,36.723,79.604,36.68,79.92,36.637z"/>
	<path fill-rule="evenodd" clip-rule="evenodd" fill="#FFFFFF" d="M115.043,87.286c0-8.46-0.001-16.922,0-25.383
		c0.003-4.732,0.067-9.465-0.036-14.195c-0.019-0.857-0.718-1.705-1.104-2.557c-0.984,0.38-2.129,0.608-2.926,1.171
		c-1.772,1.249-3.526,2.561-5.003,4.04c-2.005,2.013-4.398,2.704-7.476,2.405c-2.811-0.273-5.657-0.272-8.482-0.452
		c-1.9-0.122-3.265-0.965-3.183-2.595c0.076-1.531,1.427-2.29,3.265-2.25c2.582,0.055,5.168,0.128,7.739,0.315
		c1.811,0.131,3.081-0.339,4.406-1.413c5.474-4.43,11.148-8.689,16.646-13.099c6.169-4.95,21.315-2.829,25.225,1.181
		c1.271,1.302,2.385,3.144,2.424,4.758c0.227,9.565,0.114,19.137,0.122,28.707c0.003,1.604-0.465,3.002-2.782,3.008
		c-2.371,0.007-2.745-1.468-2.741-3.031c0.017-6.592,0.049-13.187,0.075-19.779c0.002-0.551,0.026-1.104-0.008-1.653
		c-0.077-1.141,0.208-2.666-1.831-2.637c-1.848,0.026-1.65,1.466-1.659,2.55c-0.027,3.375-0.019,6.75-0.014,10.124
		c0.006,3.852-0.008,7.704,0.052,11.557c0.016,0.879-0.028,1.954,0.531,2.597c1.671,1.917,1.393,4.032,1.395,6.142
		c0.01,10.401,0.004,20.8,0.001,31.2c0,0.619,0.036,1.244-0.05,1.856c-0.261,1.816-2.002,3.207-3.984,3.07
		c-2.18-0.152-3.482-1.202-3.816-3.003c-0.088-0.472-0.056-0.963-0.056-1.443c-0.013-14.187-0.035-28.371-0.01-42.557
		c0-1.516-0.607-2.37-2.557-2.378c-0.663-0.002-1.327-0.098-1.987-0.164c-3.099-0.314-4.136,0.428-4.138,3.002
		c-0.006,13.704-0.003,27.41-0.012,41.114c0,0.756,0.045,1.525-0.098,2.268c-0.375,1.965-2.183,3.289-4.198,3.169
		c-2.185-0.131-3.609-1.419-3.637-3.539c-0.067-4.682-0.031-9.366-0.034-14.049c-0.004-2.686-0.003-5.373-0.003-8.058
		C115.081,87.286,115.063,87.286,115.043,87.286z"/>
	<path fill-rule="evenodd" clip-rule="evenodd" d="M67.878,43.799c-2.494-2.051-5.412-2.162-8.496-1.797
		c-1.232,0.145-2.541,0.294-3.735,0.103c-1.284-0.208-2.732-0.58-3.664-1.283C47.241,37.249,42.618,33.566,38,29.882
		c-8.124-6.483-17.426-6.083-27.002-2.972c-5.745,1.866-8.709,5.481-8.598,10.775c0.201,9.499,0.207,19,0.313,28.5
		c0.027,2.337,1.345,4.172,4.046,4.621c2.526,0.42,2.616,1.574,2.606,3.22c-0.05,10.403-0.042,20.808-0.002,31.212
		c0.005,1.224,0.124,2.503,0.559,3.661c1.036,2.735,4.05,4.274,7.542,4.065c3.139-0.189,5.771-2.07,6.415-4.744
		c0.274-1.137,0.34-2.324,0.34-3.489c-0.001-12.746-0.057-25.493-0.018-38.239c0.004-1.019,0.608-2.036,0.934-3.054
		c0.365,1.074,1.039,2.146,1.043,3.22c0.065,13.298,0.002,26.597,0.044,39.894c0.012,3.807,3.156,6.454,7.362,6.431
		c4.176-0.022,7.278-2.6,7.28-6.274c0.007-16.464-0.05-32.928-0.081-49.391c-0.005-3.202-0.001-6.406-0.001-9.608
		c0.223-0.057,0.447-0.114,0.667-0.17c1.484,1.162,2.82,2.508,4.495,3.435c1.587,0.879,3.498,1.76,5.324,1.855
		c3.559,0.185,7.188-0.001,10.73-0.388c1.96-0.215,3.813-1.604,5.707-1.615c0.012-2.352,0.081-4.867,0.408-7.21
		C68.034,43.678,67.955,43.734,67.878,43.799z M62.601,49.574c-3.66,0.204-7.327,0.422-10.989,0.399
		c-1.18-0.007-2.572-0.541-3.489-1.195c-2.392-1.71-4.527-3.663-6.871-5.42c-0.662-0.498-1.689-0.662-2.552-0.979
		c-0.411,0.77-1.17,1.536-1.176,2.308c-0.031,3.576,0.255,7.153,0.231,10.729c-0.046,7.362-0.273,14.722-0.323,22.084
		c-0.059,9.16-0.013,18.321-0.016,27.48c0,0.757,0.014,1.517-0.068,2.27c-0.184,1.67-1.373,2.652-3.322,2.893
		c-2.012,0.247-3.427-0.601-4.082-2.106c-0.382-0.88-0.471-1.882-0.477-2.83c-0.038-6.887-0.02-13.774-0.02-20.66
		c-0.007-7.094-0.01-14.187-0.007-21.28c0-2.487-0.551-2.886-3.564-2.568c-5.102,0.534-5.048,0.534-5.05,4.894
		c-0.003,13.498-0.042,26.997-0.086,40.496c-0.009,2.561-1.613,4.159-4.027,4.124c-2.309-0.034-3.859-1.601-3.862-4.051
		c-0.022-11.569-0.015-23.141-0.004-34.71c0-0.546-0.121-1.237,0.216-1.614c2.542-2.84,1.627-6.066,1.651-9.188
		c0.041-5.439,0.074-10.879,0.099-16.317c0.003-0.687,0.147-1.451-0.165-2.039c-0.276-0.52-1.048-1.085-1.687-1.167
		c-0.424-0.055-1.169,0.64-1.461,1.125c-0.276,0.455-0.198,1.077-0.187,1.624c0.108,5.021,0.286,10.041,0.329,15.06
		c0.02,2.333-0.2,4.669-0.34,7.001c-0.081,1.353-0.87,2.255-2.599,2.274c-1.84,0.021-2.756-0.908-2.799-2.345
		c-0.105-3.574-0.178-7.152-0.173-10.728c0.008-5.99,0.178-11.981,0.093-17.971c-0.043-3.184,1.668-5.367,4.802-6.973
		c7.468-3.828,18.115-3.28,24.629,1.536c5.151,3.806,10.08,7.824,14.961,11.868c1.389,1.151,2.739,1.597,4.634,1.449
		c2.487-0.194,4.991-0.244,7.489-0.312c1.969-0.054,3.329,0.738,3.347,2.38C65.702,48.629,64.388,49.477,62.601,49.574z"/>
	<path fill-rule="evenodd" clip-rule="evenodd" d="M22.524,4c6.163-0.015,11.187,4.406,11.15,9.812
		c-0.035,5.276-5.065,9.713-11.044,9.746c-6.141,0.033-11.127-4.407-11.084-9.874C11.589,8.274,16.416,4.015,22.524,4z
		 M22.568,20.452c4.296-0.007,7.628-2.894,7.684-6.661c0.056-3.711-3.631-6.95-7.809-6.864c-4.15,0.085-7.615,3.233-7.556,6.864
		C14.948,17.562,18.288,20.458,22.568,20.452z"/>
	<path fill-rule="evenodd" clip-rule="evenodd" fill="#F7ED4A" d="M29.443,84.546c-0.003-7.094-0.006-14.187-0.003-21.28
		c0-2.487-0.551-2.886-3.564-2.568c-5.102,0.534-5.048,0.534-5.05,4.894c-0.003,13.498-0.042,26.997-0.086,40.496
		c-0.009,2.561-1.613,4.159-4.027,4.124c-2.309-0.034-3.859-1.601-3.862-4.051c-0.022-11.569-0.015-23.141-0.004-34.71
		c0-0.546-0.121-1.237,0.216-1.614c2.542-2.84,1.627-6.066,1.651-9.188c0.041-5.439,0.074-10.879,0.099-16.317
		c0.003-0.687,0.147-1.451-0.165-2.039c-0.276-0.52-1.048-1.085-1.687-1.167c-0.424-0.055-1.169,0.64-1.461,1.125
		c-0.276,0.455-0.198,1.077-0.187,1.624c0.108,5.021,0.286,10.041,0.329,15.06c0.02,2.333-0.2,4.669-0.34,7.001
		c-0.081,1.353-0.87,2.255-2.599,2.274c-1.84,0.021-2.756-0.908-2.799-2.345c-0.105-3.574-0.178-7.152-0.173-10.728
		c0.008-5.99,0.178-11.981,0.093-17.971c-0.043-3.184,1.668-5.367,4.802-6.973c7.468-3.828,18.115-3.28,24.629,1.536
		c5.151,3.806,10.08,7.824,14.961,11.868c1.389,1.151,2.739,1.597,4.634,1.449c2.487-0.194,4.991-0.244,7.489-0.312
		c1.969-0.054,3.329,0.738,3.347,2.38c0.016,1.516-1.298,2.364-3.085,2.461c-3.66,0.204-7.327,0.422-10.989,0.399
		c-1.18-0.007-2.572-0.541-3.489-1.195c-2.392-1.71-4.527-3.663-6.871-5.42c-0.662-0.498-1.689-0.662-2.552-0.979
		c-0.411,0.77-1.17,1.536-1.176,2.308c-0.031,3.576,0.255,7.153,0.231,10.729c-0.046,7.362-0.273,14.722-0.323,22.084
		c-0.059,9.16-0.013,18.321-0.016,27.48c0,0.757,0.014,1.517-0.068,2.27c-0.184,1.67-1.373,2.652-3.322,2.893
		c-2.012,0.247-3.427-0.601-4.082-2.106c-0.382-0.88-0.471-1.882-0.477-2.83C29.428,98.319,29.447,91.432,29.443,84.546z"/>
	<path fill-rule="evenodd" clip-rule="evenodd" fill="#F7ED4A" d="M22.568,20.452c-4.28,0.006-7.62-2.89-7.681-6.661
		c-0.059-3.631,3.406-6.779,7.556-6.864c4.178-0.086,7.865,3.153,7.809,6.864C30.197,17.558,26.865,20.445,22.568,20.452z"/>
	<path fill-rule="evenodd" clip-rule="evenodd" fill="#FFFFFF" d="M129.855,23.375c-4.285-0.04-7.588-2.975-7.591-6.743
		c-0.002-3.629,3.539-6.769,7.654-6.786c4.213-0.019,7.825,3.237,7.711,6.952C137.513,20.574,134.154,23.414,129.855,23.375z"/>
	<path fill-rule="evenodd" clip-rule="evenodd" d="M85.12,46.531c-2.495-2.05-5.411-2.161-8.495-1.797
		c-1.234,0.146-2.542,0.294-3.736,0.102c-1.285-0.207-2.732-0.579-3.664-1.282c-4.742-3.573-9.366-7.254-13.984-10.939
		c-8.126-6.484-17.427-6.083-27.002-2.972c-5.745,1.866-8.708,5.482-8.598,10.775c0.201,9.5,0.208,19,0.313,28.501
		c0.027,2.337,1.343,4.172,4.044,4.622c2.527,0.419,2.616,1.572,2.609,3.219c-0.051,10.404-0.043,20.808-0.002,31.212
		c0.004,1.224,0.123,2.503,0.559,3.659c1.034,2.737,4.048,4.276,7.542,4.066c3.14-0.189,5.771-2.071,6.415-4.743
		c0.273-1.139,0.34-2.324,0.34-3.488c-0.002-12.747-0.057-25.494-0.018-38.24c0.003-1.019,0.608-2.035,0.934-3.053
		c0.363,1.072,1.037,2.145,1.042,3.221c0.066,13.296,0.003,26.595,0.044,39.893c0.013,3.806,3.154,6.454,7.362,6.43
		c4.177-0.022,7.276-2.6,7.281-6.274c0.007-16.464-0.05-32.928-0.081-49.391c-0.005-3.203-0.001-6.406-0.001-9.61
		c0.223-0.055,0.445-0.112,0.667-0.168c1.484,1.162,2.82,2.507,4.496,3.435c1.585,0.878,3.497,1.76,5.324,1.855
		c3.558,0.184,7.188-0.001,10.729-0.388c1.961-0.214,3.813-1.604,5.707-1.615c0.012-2.353,0.081-4.867,0.408-7.21
		C85.275,46.41,85.195,46.467,85.12,46.531z M79.842,52.306c-3.66,0.204-7.326,0.423-10.987,0.401
		c-1.18-0.008-2.573-0.541-3.49-1.196c-2.393-1.709-4.527-3.662-6.872-5.421c-0.661-0.497-1.691-0.661-2.551-0.977
		c-0.411,0.769-1.171,1.536-1.176,2.306c-0.031,3.577,0.252,7.153,0.23,10.729c-0.048,7.363-0.272,14.723-0.323,22.084
		c-0.06,9.159-0.013,18.319-0.017,27.48c0,0.757,0.015,1.518-0.07,2.27c-0.182,1.67-1.372,2.652-3.32,2.893
		c-2.011,0.247-3.427-0.601-4.081-2.106c-0.383-0.88-0.472-1.882-0.478-2.83c-0.038-6.888-0.021-13.772-0.021-20.66
		c-0.007-7.095-0.007-14.188-0.007-21.279c0.001-2.487-0.55-2.886-3.562-2.571c-5.103,0.536-5.049,0.536-5.051,4.896
		c-0.004,13.498-0.043,26.996-0.087,40.496c-0.007,2.561-1.61,4.159-4.029,4.123c-2.306-0.034-3.856-1.599-3.859-4.05
		c-0.023-11.569-0.015-23.139-0.003-34.71c0-0.546-0.123-1.236,0.216-1.614c2.542-2.839,1.627-6.066,1.65-9.188
		c0.041-5.439,0.073-10.879,0.098-16.318c0.003-0.688,0.147-1.451-0.166-2.039c-0.273-0.52-1.046-1.085-1.686-1.167
		c-0.424-0.055-1.167,0.639-1.463,1.124c-0.273,0.456-0.195,1.077-0.184,1.625c0.107,5.021,0.286,10.04,0.329,15.061
		c0.02,2.333-0.201,4.668-0.34,7c-0.08,1.353-0.871,2.255-2.6,2.274c-1.842,0.021-2.756-0.907-2.798-2.344
		c-0.106-3.576-0.179-7.153-0.173-10.729c0.007-5.99,0.176-11.981,0.092-17.97c-0.044-3.186,1.668-5.369,4.801-6.974
		c7.47-3.83,18.114-3.281,24.632,1.535c5.15,3.805,10.08,7.824,14.96,11.868c1.389,1.151,2.739,1.597,4.632,1.449
		c2.486-0.194,4.994-0.244,7.492-0.313c1.968-0.052,3.328,0.739,3.347,2.383C82.942,51.361,81.631,52.208,79.842,52.306z"/>
	<path fill-rule="evenodd" clip-rule="evenodd" d="M39.766,6.925c6.162-0.015,11.186,4.406,11.15,9.813
		c-0.035,5.275-5.064,9.713-11.043,9.745c-6.143,0.033-11.127-4.408-11.084-9.874C28.829,11.2,33.658,6.94,39.766,6.925z
		 M39.811,23.376c4.296-0.007,7.627-2.894,7.683-6.66c0.056-3.711-3.63-6.951-7.811-6.865c-4.15,0.086-7.613,3.233-7.554,6.865
		C32.19,20.486,35.53,23.382,39.811,23.376z"/>
	<path fill-rule="evenodd" clip-rule="evenodd" fill="#D97827" d="M46.685,87.278c-0.005-7.095-0.005-14.188-0.005-21.279
		c0.001-2.487-0.55-2.886-3.562-2.571c-5.103,0.536-5.049,0.536-5.051,4.896c-0.004,13.498-0.043,26.996-0.087,40.496
		c-0.007,2.561-1.61,4.159-4.029,4.123c-2.306-0.034-3.856-1.599-3.859-4.05c-0.023-11.569-0.015-23.139-0.003-34.71
		c0-0.546-0.123-1.236,0.216-1.614c2.542-2.839,1.627-6.066,1.65-9.188c0.041-5.439,0.073-10.879,0.098-16.318
		c0.003-0.688,0.147-1.451-0.166-2.039c-0.273-0.52-1.046-1.085-1.686-1.167c-0.424-0.055-1.167,0.639-1.463,1.124
		c-0.273,0.456-0.195,1.077-0.184,1.625c0.107,5.021,0.286,10.04,0.329,15.061c0.02,2.333-0.201,4.668-0.34,7
		c-0.08,1.353-0.871,2.255-2.6,2.274c-1.842,0.021-2.756-0.907-2.798-2.344c-0.106-3.576-0.179-7.153-0.173-10.729
		c0.007-5.99,0.176-11.981,0.092-17.97c-0.044-3.186,1.668-5.369,4.801-6.974c7.47-3.83,18.114-3.281,24.632,1.535
		c5.15,3.805,10.08,7.824,14.96,11.868c1.389,1.151,2.739,1.597,4.632,1.449c2.486-0.194,4.994-0.244,7.492-0.313
		c1.968-0.052,3.328,0.739,3.347,2.383c0.014,1.515-1.298,2.361-3.087,2.459c-3.66,0.204-7.326,0.423-10.987,0.401
		c-1.18-0.008-2.573-0.541-3.49-1.196c-2.393-1.709-4.527-3.662-6.872-5.421c-0.661-0.497-1.691-0.661-2.551-0.977
		c-0.411,0.769-1.171,1.536-1.176,2.306c-0.031,3.577,0.252,7.153,0.23,10.729c-0.048,7.363-0.272,14.723-0.323,22.084
		c-0.06,9.159-0.013,18.319-0.017,27.48c0,0.757,0.015,1.518-0.07,2.27c-0.182,1.67-1.372,2.652-3.32,2.893
		c-2.011,0.247-3.427-0.601-4.081-2.106c-0.383-0.88-0.472-1.882-0.478-2.83C46.67,101.051,46.687,94.166,46.685,87.278z"/>
	<path fill-rule="evenodd" clip-rule="evenodd" fill="#D97827" d="M39.811,23.376c-4.281,0.006-7.621-2.89-7.682-6.66
		c-0.059-3.632,3.404-6.779,7.554-6.865c4.18-0.085,7.866,3.154,7.811,6.865C47.438,20.483,44.107,23.37,39.811,23.376z"/>
</g>
</svg>
