<?xml version="1.0" encoding="utf-8"?>
<!-- Generator: Adobe Illustrator 16.0.0, SVG Export Plug-In . SVG Version: 6.00 Build 0)  -->
<!DOCTYPE svg PUBLIC "-//W3C//DTD SVG 1.1//EN" "http://www.w3.org/Graphics/SVG/1.1/DTD/svg11.dtd">
<svg version="1.1" id="Layer_1" xmlns="http://www.w3.org/2000/svg" xmlns:xlink="http://www.w3.org/1999/xlink" x="0px" y="0px"
	 width="40px" height="40px" viewBox="0 0 40 40" enable-background="new 0 0 40 40" xml:space="preserve">
<g>
	<path fill="none" d="M28.454,11.451H11.546C12.019,7.204,15.629,3.89,20,3.89S27.981,7.204,28.454,11.451z"/>
	<path fill="#DB7700" d="M30.359,11.518C29.908,6.195,25.436,2,20,2c-5.438,0-9.908,4.195-10.359,9.518
		c-2.238,0.367-3.955,2.318-3.955,4.662v17.093c0,2.608,2.121,4.728,4.729,4.728h19.172c2.607,0,4.729-2.119,4.729-4.728V16.18
		C34.314,13.836,32.598,11.885,30.359,11.518z M20,3.89c4.371,0,7.981,3.314,8.454,7.561H11.546C12.019,7.204,15.629,3.89,20,3.89z
		 M32.422,33.272c0,1.564-1.271,2.837-2.836,2.837H10.414c-1.564,0-2.836-1.272-2.836-2.837V16.18c0-1.283,0.854-2.367,2.025-2.718
		c0.255-0.075,0.527-0.118,0.811-0.118h19.172c0.283,0,0.556,0.043,0.811,0.118c1.171,0.351,2.025,1.435,2.025,2.718V33.272z"/>
	<path fill="#DB7700" d="M22.836,23.195c0-1.566-1.271-2.836-2.836-2.836s-2.836,1.27-2.836,2.836c0,1.033,0.554,1.937,1.381,2.431
		v1.796c0,0.799,0.656,1.456,1.456,1.456l0,0c0.802,0,1.457-0.657,1.457-1.456v-1.797C22.284,25.129,22.836,24.227,22.836,23.195z"
		/>
</g>
</svg>
