<?xml version="1.0" encoding="utf-8"?>
<!-- Generator: Adobe Illustrator 16.0.0, SVG Export Plug-In . SVG Version: 6.00 Build 0)  -->
<!DOCTYPE svg PUBLIC "-//W3C//DTD SVG 1.1//EN" "http://www.w3.org/Graphics/SVG/1.1/DTD/svg11.dtd">
<svg version="1.1" id="Layer_1" xmlns="http://www.w3.org/2000/svg" xmlns:xlink="http://www.w3.org/1999/xlink" x="0px" y="0px"
	 width="40px" height="40px" viewBox="0 0 40 40" enable-background="new 0 0 40 40" xml:space="preserve">
<path fill="#DB7700" d="M25.031,19.66c2.696-1.589,4.498-4.405,4.498-7.617c0-4.955-4.274-8.983-9.529-8.983
	s-9.529,4.029-9.529,8.983c0,3.212,1.802,6.028,4.497,7.617C7.486,21.718,2,28.233,2,35.944c0,0.55,0.474,0.996,1.06,0.996h33.882
	c0.585,0,1.059-0.446,1.059-0.996C38,28.233,32.514,21.718,25.031,19.66z M12.588,12.043c0-3.854,3.326-6.992,7.412-6.992
	c4.086,0,7.412,3.137,7.412,6.992c0,3.645-2.973,6.642-6.75,6.96c-0.222-0.007-0.438-0.032-0.662-0.032
	c-0.224,0-0.44,0.024-0.662,0.032C15.561,18.685,12.588,15.688,12.588,12.043z M4.153,34.947
	c0.531-7.587,7.081-13.629,15.171-13.951c0.224,0.014,0.448,0.031,0.676,0.031s0.453-0.018,0.676-0.031
	c8.092,0.322,14.641,6.364,15.172,13.951H4.153z"/>
</svg>
